<svg xmlns="http://www.w3.org/2000/svg" xmlns:xlink="http://www.w3.org/1999/xlink" width="600" height="330" viewBox="0 0 600 330">
  <defs>
    <clipPath id="clip-path">
      <rect id="Rectangle_5916" data-name="Rectangle 5916" width="377.739" height="275.133" fill="none"/>
    </clipPath>
    <clipPath id="clip-path-3">
      <rect id="Rectangle_5912" data-name="Rectangle 5912" width="1.818" height="3.992" fill="none"/>
    </clipPath>
  </defs>
  <g id="Group_15372" data-name="Group 15372" transform="translate(-80 -255)">
    <rect id="Rectangle_5892" data-name="Rectangle 5892" width="600" height="330" transform="translate(80 255)" fill="#0583d2"/>
    <g id="Group_15371" data-name="Group 15371" transform="translate(191 282)">
      <g id="Group_15370" data-name="Group 15370" clip-path="url(#clip-path)">
        <g id="Group_15369" data-name="Group 15369">
          <g id="Group_15368" data-name="Group 15368" clip-path="url(#clip-path)">
            <path id="Path_15000" data-name="Path 15000" d="M270.141,260.74h-102.6a16.188,16.188,0,0,1-16.188-16.188V16.188A16.188,16.188,0,0,1,167.544,0h102.6a16.188,16.188,0,0,1,16.188,16.188V244.552a16.188,16.188,0,0,1-16.188,16.188" transform="translate(-36.586)"/>
            <path id="Path_15001" data-name="Path 15001" d="M270.428,257.762H168.868a14.179,14.179,0,0,1-14.179-14.18V17.191A14.18,14.18,0,0,1,168.868,3.01h101.56a14.18,14.18,0,0,1,14.18,14.181V243.583a14.18,14.18,0,0,1-14.18,14.18" transform="translate(-37.392 -0.728)" fill="#fff"/>
            <path id="Path_15002" data-name="Path 15002" d="M280.734,18.063v226.13a9.6,9.6,0,0,1-9.6,9.6H171.792a9.6,9.6,0,0,1-9.6-9.6V18.063a9.6,9.6,0,0,1,9.6-9.6h16.565A2.428,2.428,0,0,1,190.529,9.8l1.759,3.512a4.746,4.746,0,0,0,4.255,2.636h49.835a4.746,4.746,0,0,0,4.255-2.636L252.394,9.8a2.428,2.428,0,0,1,2.172-1.341h16.565a9.6,9.6,0,0,1,9.6,9.6" transform="translate(-39.205 -2.045)" fill="#dee3fc"/>
            <path id="Path_15003" data-name="Path 15003" d="M254.6,11.84H214.465a1.69,1.69,0,1,1,0-3.38H254.6a1.69,1.69,0,1,1,0,3.38" transform="translate(-51.433 -2.045)" fill="#dee3fc"/>
            <rect id="Rectangle_5893" data-name="Rectangle 5893" width="102.026" height="44.246" rx="8.379" transform="translate(130.087 199.656)" fill="none" stroke="#698bd1" stroke-linecap="round" stroke-linejoin="round" stroke-width="1" stroke-dasharray="2.837 2.837"/>
            <rect id="Rectangle_5894" data-name="Rectangle 5894" width="53.474" height="31.065" rx="6.044" transform="translate(172.341 104.262)" fill="none" stroke="#698bd1" stroke-linecap="round" stroke-linejoin="round" stroke-width="1" stroke-dasharray="2.837 2.837"/>
            <path id="Path_15004" data-name="Path 15004" d="M273.425,237.811h-91.51a5.46,5.46,0,0,1-5.46-5.46v-38.6a5.46,5.46,0,0,1,5.46-5.46h91.51a5.46,5.46,0,0,1,5.46,5.46v38.6a5.46,5.46,0,0,1-5.46,5.46" transform="translate(-42.653 -45.515)" fill="#4b5a9b"/>
            <path id="Path_15005" data-name="Path 15005" d="M273.582,188.462v38.619a5.446,5.446,0,0,1-5.452,5.444H177.008a5.446,5.446,0,0,1-5.452-5.444V188.462a5.453,5.453,0,0,1,5.452-5.452H268.13a5.453,5.453,0,0,1,5.452,5.452" transform="translate(-41.469 -44.238)" fill="#7f95f4"/>
            <path id="Path_15006" data-name="Path 15006" d="M208.3,232.1H181.458a3.686,3.686,0,0,1-3.686-3.686V201.564a3.686,3.686,0,0,1,3.686-3.685H208.3a3.686,3.686,0,0,1,3.686,3.685V228.41A3.686,3.686,0,0,1,208.3,232.1" transform="translate(-42.972 -47.832)" fill="#fff"/>
            <path id="Path_15007" data-name="Path 15007" d="M252.087,202.847H228.445a1.164,1.164,0,0,1,0-2.328h23.642a1.164,1.164,0,1,1,0,2.328" transform="translate(-54.939 -48.47)" fill="#b2c1f9"/>
            <path id="Path_15008" data-name="Path 15008" d="M241.313,208.976H228.444a1.164,1.164,0,0,1,0-2.328h12.869a1.164,1.164,0,0,1,0,2.328" transform="translate(-54.939 -49.951)" fill="#b2c1f9"/>
            <path id="Path_15009" data-name="Path 15009" d="M286.483,208.976H251.661a1.164,1.164,0,0,1,0-2.328h34.822a1.164,1.164,0,0,1,0,2.328" transform="translate(-60.551 -49.951)" fill="#b2c1f9"/>
            <path id="Path_15010" data-name="Path 15010" d="M248.355,215.1H228.444a1.164,1.164,0,0,1,0-2.328h19.911a1.164,1.164,0,1,1,0,2.328" transform="translate(-54.939 -51.433)" fill="#b2c1f9"/>
            <path id="Path_15011" data-name="Path 15011" d="M273,215.1H260.483a1.164,1.164,0,0,1,0-2.328H273a1.164,1.164,0,1,1,0,2.328" transform="translate(-62.683 -51.433)" fill="#b2c1f9"/>
            <path id="Path_15012" data-name="Path 15012" d="M293.909,215.1H282.382a1.164,1.164,0,1,1,0-2.328h11.527a1.164,1.164,0,1,1,0,2.328" transform="translate(-67.977 -51.433)" fill="#b2c1f9"/>
            <path id="Path_15013" data-name="Path 15013" d="M280.87,221.234H228.444a1.164,1.164,0,0,1,0-2.328H280.87a1.164,1.164,0,1,1,0,2.328" transform="translate(-54.939 -52.915)" fill="#b2c1f9"/>
            <path id="Path_15014" data-name="Path 15014" d="M257.3,227.364H228.445a1.164,1.164,0,1,1,0-2.328H257.3a1.164,1.164,0,0,1,0,2.328" transform="translate(-54.939 -54.396)" fill="#b2c1f9"/>
            <path id="Path_15015" data-name="Path 15015" d="M291.552,227.364H272.631a1.164,1.164,0,0,1,0-2.328h18.921a1.164,1.164,0,1,1,0,2.328" transform="translate(-65.62 -54.396)" fill="#b2c1f9"/>
            <path id="Path_15016" data-name="Path 15016" d="M245.4,233.493H228.444a1.164,1.164,0,0,1,0-2.328H245.4a1.164,1.164,0,1,1,0,2.328" transform="translate(-54.939 -55.878)" fill="#b2c1f9"/>
            <path id="Path_15017" data-name="Path 15017" d="M273.806,233.493H256.852a1.164,1.164,0,0,1,0-2.328h16.954a1.164,1.164,0,0,1,0,2.328" transform="translate(-61.806 -55.878)" fill="#b2c1f9"/>
            <path id="Path_15018" data-name="Path 15018" d="M294.447,233.493H284.61a1.164,1.164,0,1,1,0-2.328h9.837a1.164,1.164,0,0,1,0,2.328" transform="translate(-68.515 -55.878)" fill="#b2c1f9"/>
            <path id="Path_15019" data-name="Path 15019" d="M252.087,239.622H228.445a1.164,1.164,0,0,1,0-2.328h23.642a1.164,1.164,0,1,1,0,2.328" transform="translate(-54.939 -57.359)" fill="#b2c1f9"/>
            <path id="Path_15020" data-name="Path 15020" d="M290.046,202.847H266.4a1.164,1.164,0,1,1,0-2.328h23.642a1.164,1.164,0,1,1,0,2.328" transform="translate(-64.114 -48.47)" fill="#b2c1f9"/>
            <path id="Path_15021" data-name="Path 15021" d="M273.582,188.462v1.623H171.556v-1.623a5.453,5.453,0,0,1,5.452-5.452H268.13a5.453,5.453,0,0,1,5.452,5.452" transform="translate(-41.469 -44.238)" fill="#3052ce"/>
            <path id="Path_15022" data-name="Path 15022" d="M279.939,187.441a1.264,1.264,0,1,1-1.264-1.264,1.264,1.264,0,0,1,1.264,1.264" transform="translate(-67.057 -45.003)" fill="#dee3fc"/>
            <path id="Path_15023" data-name="Path 15023" d="M288.467,187.441a1.264,1.264,0,1,1-1.264-1.264,1.264,1.264,0,0,1,1.264,1.264" transform="translate(-69.118 -45.003)" fill="#dee3fc"/>
            <path id="Path_15024" data-name="Path 15024" d="M297,187.441a1.264,1.264,0,1,1-1.264-1.264A1.264,1.264,0,0,1,297,187.441" transform="translate(-71.18 -45.003)" fill="#dee3fc"/>
            <rect id="Rectangle_5895" data-name="Rectangle 5895" width="31.037" height="31.037" rx="7.151" transform="translate(136.06 104.29)" fill="none" stroke="#495ad6" stroke-width="0.896"/>
            <path id="Path_15025" data-name="Path 15025" d="M192.088,152.081l-4.472,4.472,4.506,4.506" transform="translate(-45.351 -36.761)" fill="none" stroke="#495ad6" stroke-linecap="round" stroke-linejoin="round" stroke-width="1.672"/>
            <path id="Path_15026" data-name="Path 15026" d="M206.272,152.081l4.472,4.472-4.506,4.506" transform="translate(-49.852 -36.761)" fill="none" stroke="#495ad6" stroke-linecap="round" stroke-linejoin="round" stroke-width="1.672"/>
            <line id="Line_48" data-name="Line 48" x1="4.187" y2="8.978" transform="translate(149.485 115.32)" fill="none" stroke="#495ad6" stroke-linecap="round" stroke-linejoin="round" stroke-width="1.672"/>
            <path id="Path_15027" data-name="Path 15027" d="M273.582,35.653V98.794a6.2,6.2,0,0,1-6.2,6.2H177.759a6.205,6.205,0,0,1-6.2-6.2V35.653a6.205,6.205,0,0,1,6.2-6.2h89.621a6.2,6.2,0,0,1,6.2,6.2" transform="translate(-41.469 -7.119)" fill="#b2c1f9"/>
            <path id="Path_15028" data-name="Path 15028" d="M288.929,51.046A14.786,14.786,0,1,1,274.142,36.26a14.786,14.786,0,0,1,14.786,14.786" transform="translate(-62.692 -8.765)" fill="#f0f4ff"/>
            <path id="Path_15029" data-name="Path 15029" d="M231.528,110.432H177.759a6.205,6.205,0,0,1-6.2-6.2V94.288l23.529-40.757a3.2,3.2,0,0,1,5.535,0L218.387,84.3l13.194,22.854a3.136,3.136,0,0,1-.053,3.276" transform="translate(-41.469 -12.553)" fill="#fff"/>
            <path id="Path_15030" data-name="Path 15030" d="M264.835,115.8H213.416l15.09-26.13,8.129-14.081a2.876,2.876,0,0,1,4.982,0Z" transform="translate(-51.587 -17.924)" fill="#f0f4ff"/>
            <rect id="Rectangle_5896" data-name="Rectangle 5896" width="39.64" height="59.573" transform="translate(275.595 215.207)" fill="#3b47bc"/>
            <rect id="Rectangle_5897" data-name="Rectangle 5897" width="15.178" height="59.573" transform="translate(315.235 215.207)" fill="#495ad6"/>
            <rect id="Rectangle_5898" data-name="Rectangle 5898" width="11.144" height="1.901" transform="translate(317.408 217.495)" fill="#b2c1f9"/>
            <rect id="Rectangle_5899" data-name="Rectangle 5899" width="11.144" height="1.901" transform="translate(317.408 221.579)" fill="#b2c1f9"/>
            <rect id="Rectangle_5900" data-name="Rectangle 5900" width="11.144" height="1.901" transform="translate(317.408 225.664)" fill="#b2c1f9"/>
            <rect id="Rectangle_5901" data-name="Rectangle 5901" width="11.144" height="1.901" transform="translate(317.408 229.748)" fill="#b2c1f9"/>
            <rect id="Rectangle_5902" data-name="Rectangle 5902" width="11.144" height="1.901" transform="translate(317.408 233.832)" fill="#b2c1f9"/>
            <rect id="Rectangle_5903" data-name="Rectangle 5903" width="11.144" height="1.901" transform="translate(317.408 237.916)" fill="#b2c1f9"/>
            <rect id="Rectangle_5904" data-name="Rectangle 5904" width="11.144" height="1.901" transform="translate(317.408 242.001)" fill="#b2c1f9"/>
            <rect id="Rectangle_5905" data-name="Rectangle 5905" width="11.144" height="1.901" transform="translate(317.408 246.085)" fill="#b2c1f9"/>
            <rect id="Rectangle_5906" data-name="Rectangle 5906" width="11.144" height="1.901" transform="translate(317.408 250.169)" fill="#b2c1f9"/>
            <rect id="Rectangle_5907" data-name="Rectangle 5907" width="11.144" height="1.901" transform="translate(317.408 254.254)" fill="#b2c1f9"/>
            <rect id="Rectangle_5908" data-name="Rectangle 5908" width="11.144" height="1.901" transform="translate(317.408 258.338)" fill="#b2c1f9"/>
            <rect id="Rectangle_5909" data-name="Rectangle 5909" width="11.144" height="1.901" transform="translate(317.408 262.422)" fill="#b2c1f9"/>
            <rect id="Rectangle_5910" data-name="Rectangle 5910" width="11.144" height="1.901" transform="translate(317.408 266.506)" fill="#b2c1f9"/>
            <rect id="Rectangle_5911" data-name="Rectangle 5911" width="11.144" height="1.901" transform="translate(317.408 270.591)" fill="#b2c1f9"/>
            <path id="Path_15031" data-name="Path 15031" d="M354.948,359.814h20.146a10.99,10.99,0,0,0-1.314-8.032s-1.621,1.3-6.479.421a21.565,21.565,0,0,1-3.427,2.394c-1.407.681-9.469,2.264-8.926,5.217" transform="translate(-85.793 -85.034)" fill="#281616"/>
            <path id="Path_15032" data-name="Path 15032" d="M356.663,286.157c1.3,7.764,7.305,34.031,9.886,49.55a23.678,23.678,0,0,0,8.183-.416c-.235-5.411-.7-18.355-.645-24.031.089-9.594.54-22.244-3.684-29.186l-14.2,1.118c.086.75.165,1.36.235,1.8.067.418.146.8.224,1.17" transform="translate(-86.103 -68.184)" fill="#002c54"/>
            <path id="Path_15033" data-name="Path 15033" d="M306.893,359.814h20.146a10.99,10.99,0,0,0-1.314-8.032s-1.621,1.3-6.479.421a21.564,21.564,0,0,1-3.427,2.394c-1.407.681-9.469,2.264-8.926,5.217" transform="translate(-74.177 -85.034)" fill="#281616"/>
            <path id="Path_15034" data-name="Path 15034" d="M322.422,333.765a23.107,23.107,0,0,0,7.958.711c1.071-6.237,2.763-19.962,4.287-26.394,2.363-10,4.676-23.75,3.069-28.656l-13.968-3.508c-.046.442-1.184,42.527-1.345,57.847" transform="translate(-77.937 -66.696)" fill="#052635"/>
            <path id="Path_15035" data-name="Path 15035" d="M378.43,255.512h0c-.281-2.76-.6-4.776-.6-4.776l-15.605,3.819-13.257,3.02c-4.914,1.095-10.851,2.413-16.085,3.6-5.873,1.335-9.772,5.8-8.486,11.677l1.473,7.133c8.214-.112,46.835-3.815,50.138-5.482,3.732-1.885,4.856-8.549,2.426-18.986" transform="translate(-78.354 -60.609)" fill="#052635"/>
            <path id="Path_15036" data-name="Path 15036" d="M409.152,255.211h0a21.561,21.561,0,0,0-1.626-5.722l-14.582,4.765-13.257,3.02c-4.914,1.095-10.851,2.413-16.084,3.6-5.873,1.335-9.772,5.8-8.486,11.677l1.473,7.133c8.214-.112,42.547-1.309,50.138-5.482,3.664-2.015,4.856-8.549,2.426-18.987" transform="translate(-85.78 -60.307)" fill="#002c54"/>
            <path id="Path_15037" data-name="Path 15037" d="M361.54,227.1s6.931-3.131,8.839.009c1.044,1.72.321,4.913-2.042,6.253s-15.723,6.991-28.331,10.141a30.727,30.727,0,0,0-1.407-3.6,66.4,66.4,0,0,0,11.279-6.3A71.9,71.9,0,0,1,361.54,227.1" transform="translate(-81.847 -54.559)" fill="#e5918f"/>
            <path id="Path_15038" data-name="Path 15038" d="M369.244,198.995l-5.94,23.727s.613,6,6.671,3.054,10.073-21.847,10.073-21.847Z" transform="translate(-87.819 -48.102)" fill="#e5918f"/>
            <path id="Path_15039" data-name="Path 15039" d="M380.316,207.911c-.736-.177-1.437-.372-2.113-.575q-1.04-.3-1.978-.634a33.341,33.341,0,0,1-8.7-4.258,62.288,62.288,0,0,1,5.814-16.309,2.484,2.484,0,0,0,.144-.253c.05-.085.1-.169.152-.254a14.836,14.836,0,0,1,4.133-4.3l.5-.347.7,12.388.118,1.276Z" transform="translate(-88.841 -43.747)" fill="#fff"/>
            <path id="Path_15040" data-name="Path 15040" d="M383.088,211.779c-.736-.177-1.437-.372-2.113-.575q-1.04-.3-1.978-.634c1.185-8.344,2.257-13.588,2.257-13.588l.608,1.529Z" transform="translate(-91.612 -47.615)" fill="#c7e5f2"/>
            <path id="Path_15041" data-name="Path 15041" d="M418.2,185c-.143,3.668-.786,9.557-1.344,15.473-.177,1.876-.347,3.76-.49,5.577-.1,1.132-1.808,7.174-1.876,8.255-.3,5.172-2.84,9.042-.44,16.918a12.4,12.4,0,0,1,.718,3.634c0,.541-.7,1.106-.98,1.259A16.527,16.527,0,0,1,408.4,237.4h-.008a139.451,139.451,0,0,1-14.94.685c-5.163,0-12.912-.82-13.892-2.122-.9-1.191-.067-2.923.355-5.315,1.9-10.791,1.225-16.419,1.107-24.21,0-.194-.009-.388-.009-.591-.194-12.016-.988-22.3-.431-26.01l.5-.347c.82-.557,1.622-1.056,2.4-1.5.068-.034.152-.085.237-.136.236-.135.482-.262.71-.388a2.723,2.723,0,0,1,.27-.136,58.85,58.85,0,0,1,5.763-2.273c.187-.059.355-.118.5-.161,1.377-.085,2.873-.1,4.487-.059,1.4.042,3.549.228,5.882.532h.008a60.772,60.772,0,0,1,7.808,1.462.391.391,0,0,1,.042.017,16.072,16.072,0,0,1,6.144,4.3A20.77,20.77,0,0,1,418.2,185" transform="translate(-91.652 -42.258)" fill="#fff"/>
            <path id="Path_15042" data-name="Path 15042" d="M423.013,236.993a12.4,12.4,0,0,1,.718,3.634c0,.541-.7,1.107-.98,1.259a16.533,16.533,0,0,1-5.383,1.285,3.814,3.814,0,0,0,2.7-3.1c0-.99-1.285-7.681-.93-12s1.056-11.171-.279-16.664-2.6-12.718-2.6-12.718l7.529,4.547s.972,1.36,2.037,3.008c-.177,1.876-.347,3.76-.491,5.577-.1,1.132-4.715,17.3-2.315,25.173" transform="translate(-100.618 -48.027)" fill="#c7e5f2"/>
            <path id="Path_15043" data-name="Path 15043" d="M381.486,146.364s.651,7.875,3.263,8.4,1.97-2.817,1.97-2.817l-.365-3.74Z" transform="translate(-92.214 -35.38)" fill="#002c54"/>
            <path id="Path_15044" data-name="Path 15044" d="M396.268,177.71c-5.112-.608-3.2-5.577-2.5-6.718.186-.06,1.065-.33,1.133-.372a.026.026,0,0,1,.017-.008,1.4,1.4,0,0,0,.4-.591,12.137,12.137,0,0,0,.253-4.09v-.482c.084-.312.169-.608.237-.887l2.687-2.113,5.687-4.47s-1.513,7.478-.3,12.193a1.769,1.769,0,0,0,.752,1.133c0,.008.008,0,.008,0a1.348,1.348,0,0,0,.566.2c1.394.659-.549,7.2-8.94,6.2" transform="translate(-94.956 -38.187)" fill="#e5918f"/>
            <path id="Path_15045" data-name="Path 15045" d="M401.564,164.246a8.484,8.484,0,0,1-5.465,7.286,11.992,11.992,0,0,0,.256-4.083l2.27-1.782Z" transform="translate(-95.746 -39.702)" fill="#cc6362"/>
            <path id="Path_15046" data-name="Path 15046" d="M383.133,145.351s1.181,16.339,5.592,17.727a11.475,11.475,0,0,0,9.657-4.9c1.162-1.564,2.633-1.915,3.113-3.8.779-3.068,1.879-8.726.475-12.136-2-4.857-18.648-8.713-18.837,3.113" transform="translate(-92.612 -33.245)" fill="#e5918f"/>
            <path id="Path_15047" data-name="Path 15047" d="M400.513,138.629c-.073-2.968-3.076-4.077-3.076-4.077-2.991-1.4-9.205-.8-15.613.634-1.5.335-3.387-.587-4.437.141-1.268.88-.005,4.9-.005,4.9,2.471,7.485,11.566,5.051,14.3,4.127.65,1.927.566,4.607,2.186,5.988.924.787,2.528.81,4.16.538.2.382.955.719,1.109,1.243a26.441,26.441,0,0,1,.425,6.6l.771-.377c.1-.571,8.077-19.466.181-19.711" transform="translate(-91.086 -32.333)" fill="#002c54"/>
            <path id="Path_15048" data-name="Path 15048" d="M387.866,154.413a2,2,0,1,1-2.33-2.132A2.269,2.269,0,0,1,387.866,154.413Z" transform="translate(-92.821 -36.805)" fill="none" stroke="#fff" stroke-width="0.501"/>
            <path id="Path_15049" data-name="Path 15049" d="M394.9,153.1a2,2,0,1,1-2.33-2.132A2.269,2.269,0,0,1,394.9,153.1Z" transform="translate(-94.52 -36.487)" fill="none" stroke="#fff" stroke-width="0.501"/>
            <path id="Path_15050" data-name="Path 15050" d="M389.1,155.006s.234-.379,1.461-.273" transform="translate(-94.054 -37.398)" fill="none" stroke="#fff" stroke-width="0.501"/>
            <line id="Line_49" data-name="Line 49" y1="0.728" x2="4.557" transform="translate(300.422 116.209)" fill="none" stroke="#fff" stroke-width="0.501"/>
            <path id="Path_15051" data-name="Path 15051" d="M402.228,158.689c3.138,1.2,4.118-6.522,1.138-6.864-2.26-.26-2.352,2.893-2.352,2.893s-.578,3.285,1.214,3.971" transform="translate(-96.913 -36.696)" fill="#e5918f"/>
            <g id="Group_15367" data-name="Group 15367" transform="translate(305.022 116.294)" opacity="0.5">
              <g id="Group_15366" data-name="Group 15366">
                <g id="Group_15365" data-name="Group 15365" clip-path="url(#clip-path-3)">
                  <path id="Path_15052" data-name="Path 15052" d="M403.584,153.366a2.692,2.692,0,0,0-.389.554,3.224,3.224,0,0,0-.383,1.317,4.586,4.586,0,0,0-.011.749c.008.244.038.475.055.679s.039.377.052.5.012.2.012.2a1.8,1.8,0,0,1-.112-.16,3.354,3.354,0,0,1-.256-.45,3.075,3.075,0,0,1-.231-.7,2.9,2.9,0,0,1-.055-.861,2.457,2.457,0,0,1,.231-.848,2.036,2.036,0,0,1,.454-.616,1.5,1.5,0,0,1,.633-.356" transform="translate(-402.256 -153.366)" fill="#cc6362"/>
                  <path id="Path_15053" data-name="Path 15053" d="M404.085,155.3a1.356,1.356,0,0,0-.3.08,1.546,1.546,0,0,0-.557.352,1.4,1.4,0,0,0-.329.524,1.624,1.624,0,0,0-.076.268l-.517-.185a2.017,2.017,0,0,1,.187-.306,1.754,1.754,0,0,1,.572-.521,1.727,1.727,0,0,1,.7-.215,1.35,1.35,0,0,1,.322,0" transform="translate(-402.267 -153.83)" fill="#cc6362"/>
                </g>
              </g>
            </g>
            <path id="Path_15054" data-name="Path 15054" d="M437.319,223.693v.008c-1.379,1.6-6.613,2.767-9.131.554-.791-.705-1.684-2.563-2.562-4.869a150.864,150.864,0,0,1-4.346-14.712l11.712-5.984s1.507,6.756,2.8,13.177c0,0,.011.064.035.178.423,2.057.816,4.08,1.125,5.816a.873.873,0,0,1,.022.138,24.591,24.591,0,0,1,.34,5.7" transform="translate(-101.833 -48.028)" fill="#e5918f"/>
            <path id="Path_15055" data-name="Path 15055" d="M415.445,191.765a140.649,140.649,0,0,0,4.686,13.616,18.564,18.564,0,0,0,8.6-1.04,15.84,15.84,0,0,0,5.475-3.556s-2.357-6.627-4.474-11.388c-1.9-4.274-3.04-5.869-3.862-6.716a18.619,18.619,0,0,0-4.651-3.458Z" transform="translate(-100.422 -43.322)" fill="#fff"/>
            <path id="Path_15056" data-name="Path 15056" d="M431.061,194.42l-6.873-2.966L418.772,177.5s.993.3,2.3.83h.006c.026.013.082.031.176.069a.729.729,0,0,1,.1.044c1.168.547,5.7,3.217,8.833,12.917.025.082.051.163.076.245.333,1.118.578,2.017.71,2.482.013.044.025.088.038.138s.031.132.05.195" transform="translate(-101.227 -42.906)" fill="#fff"/>
            <path id="Path_15057" data-name="Path 15057" d="M430.949,227.838v.008c-.1.858-.337,1.474-.761,1.693-.068.043-1.03.616-1.1.659a58.435,58.435,0,0,1-7.26,3.754,262.877,262.877,0,0,1-25.352,9.109,29.818,29.818,0,0,0-1.551-3.539,66.432,66.432,0,0,0,11.006-6.756c5.463-4.171,13.321-9.236,13.321-9.236l1.984-2.334s7.054-6.492,8.187-5.186c0,0,.011.064.035.178.168.677.729,3.168,1.125,5.816a.876.876,0,0,1,.022.138,24.593,24.593,0,0,1,.34,5.7" transform="translate(-95.463 -52.173)" fill="#e5918f"/>
            <path id="Path_15058" data-name="Path 15058" d="M393.21,246.241a4.363,4.363,0,0,1-2.784.535c-.777-.164-1.091-.482-1.666-.582a12.987,12.987,0,0,1-2.864-.662c-.758-.372-1.053-.413-1.027.347s1.522,1.419,1.928,1.63a3.83,3.83,0,0,1,.969.971c.055.085-2.492,1.418-3.177,1.147a1.984,1.984,0,0,0-.088.956c.116.342.64.463.681.634s-.121.524-.007.8.581.275.77.718-.019.451.118.914.729.546.842.785.053.518.3.682a11.531,11.531,0,0,0,3.376-.93c.836-.358,3.071-3.575,5.544-4.672Z" transform="translate(-92.934 -59.288)" fill="#e5918f"/>
            <path id="Path_15059" data-name="Path 15059" d="M405.759,264.931H387.941v-1.743h17.818a.872.872,0,1,1,0,1.743" transform="translate(-93.774 -63.619)" fill="#375f84"/>
            <path id="Path_15060" data-name="Path 15060" d="M381.214,254.27H336.6a1.19,1.19,0,0,1-1.146-.87l-9.13-32.87a1.141,1.141,0,0,1,1.1-1.447h43.141a2.237,2.237,0,0,1,2.156,1.639l9.1,32.751a.63.63,0,0,1-.607.8" transform="translate(-78.87 -52.957)" fill="#375f84"/>
            <path id="Path_15061" data-name="Path 15061" d="M379.085,254.27H334.474a1.19,1.19,0,0,1-1.146-.87l-9.13-32.87a1.141,1.141,0,0,1,1.1-1.447h43.14a2.238,2.238,0,0,1,2.157,1.639l9.1,32.751a.63.63,0,0,1-.607.8" transform="translate(-78.356 -52.957)" fill="#467cdb"/>
            <path id="Path_15062" data-name="Path 15062" d="M163.42,233.049l5.168-5.3a13.861,13.861,0,0,1,.46-2.861,13.175,13.175,0,0,1,1.371-2.545,1.879,1.879,0,0,1,1.087,0,4.962,4.962,0,0,1,1.04-.242,3.056,3.056,0,0,1,.924.294s.772-.052,1.094-.052a.69.69,0,0,1,.425.09,22.681,22.681,0,0,1,1.849-1.915c.6-.484,1.527-1.372,1.8-1.368.258,0,.372.456.184.939a5.387,5.387,0,0,1-1.005,1.262l-2.354,3.568a4.979,4.979,0,0,0,.617-.3c.215-.134,1.65-1.476,1.737-1.529s.731-.483,1.106-.054-2.465,3.832-2.921,4.289a24.912,24.912,0,0,1-3.067,1.777s-2.758,4.959-3.026,5.281-6.489-1.341-6.489-1.341" transform="translate(-39.502 -52.974)" fill="#e49191"/>
            <path id="Path_15063" data-name="Path 15063" d="M163.714,202.439s-2.887,16.722-5.6,17.11c0,0-10.846.438-13.263-12.721-2.1-11.412,6.31-13.845,10.241-12.973s9.469,1.441,8.625,8.584" transform="translate(-34.933 -46.82)" fill="#e49191"/>
            <path id="Path_15064" data-name="Path 15064" d="M153.77,221.368s-1.52,2.048-2.053,7.01a16.108,16.108,0,0,1-8.682-1.5,61.4,61.4,0,0,0,2.52-14.6" transform="translate(-34.575 -51.314)" fill="#e49191"/>
            <path id="Path_15065" data-name="Path 15065" d="M150.352,190.15c-5.928,1.31-5.454,5-5.454,5-2.775.687-3.371,1.832-3.349,6.955s1.877,11.273,2.9,11.774,6.817.525,7.3.35,2.512-4.876,2.039-5.7.024-4.078,1.373-4.2,1.085,1.968,1.085,1.968l1.11-.243.855-2.1c7.834.466,9.857-8.46,9.857-8.46-1.881-1.227-11.79-6.652-17.716-5.342" transform="translate(-34.215 -45.915)" fill="#002c54"/>
            <path id="Path_15066" data-name="Path 15066" d="M65.318,339.475l5.993.867-1.985,7L62.835,345.7a4.22,4.22,0,0,1,1.347-6.228,2.184,2.184,0,0,1,1.137,0" transform="translate(-14.981 -82.04)" fill="#e5918f"/>
            <path id="Path_15067" data-name="Path 15067" d="M111.85,307.131l-8.834-26.747s-2.677-.954-4.049,0c0,0-9.2,4.949-8.22,19.059a230.553,230.553,0,0,0,3.9,26.8l-23.569-.871a8.029,8.029,0,0,0-1.026,7.954s29.615,7.965,33.787,8.7c3.39.6,7.1,1.059,8.892-.476,3.157-2.7-.877-34.42-.877-34.42" transform="translate(-16.779 -67.673)"/>
            <path id="Path_15068" data-name="Path 15068" d="M102.12,339.475l5.993.867-1.985,7L99.637,345.7a4.22,4.22,0,0,1,1.347-6.228,2.184,2.184,0,0,1,1.137,0" transform="translate(-23.877 -82.04)" fill="#e5918f"/>
            <path id="Path_15069" data-name="Path 15069" d="M96.964,342.571c-.134,1.378,1.071,2.619.851,2.963s-4.249,7.1-4.249,7.1,3.041,1.325,2.551,3.239h-7.7a6.391,6.391,0,0,1-1.962-4.415,22.345,22.345,0,0,1,1.9-5.642c1.373-2.649,4.5-8.631,4.5-8.631a4.361,4.361,0,0,1,2.568.049,15.572,15.572,0,0,1,3.726,1.667s-1.843.265-2.175,3.669" transform="translate(-20.897 -81.468)" fill="#467cdb"/>
            <path id="Path_15070" data-name="Path 15070" d="M163.225,336.068c-1.9-7.1-19.795-37.39-25.848-45.569-12.433-5.4-25.684-9.98-25.684-9.98-5.481,1.309-8.18,12.352-5.071,19.714,2.132,5.05,15.66,17.761,23.944,25.245l-22.989-.028s-2.708,4.048-.254,7.893c0,0,38.234,8.693,41.587,9.184s10.879,0,10.879,0,5.036-.485,3.436-6.459" transform="translate(-25.455 -67.808)" fill="#002c54"/>
            <path id="Path_15071" data-name="Path 15071" d="M60.163,342.571c-.134,1.378,1.071,2.619.851,2.963s-4.249,7.1-4.249,7.1,3.041,1.325,2.551,3.239h-7.7a6.391,6.391,0,0,1-1.962-4.415,22.345,22.345,0,0,1,1.9-5.642c1.373-2.649,4.5-8.631,4.5-8.631a4.361,4.361,0,0,1,2.568.049,15.572,15.572,0,0,1,3.726,1.667s-1.843.265-2.175,3.669" transform="translate(-12.001 -81.468)" fill="#467cdb"/>
            <path id="Path_15072" data-name="Path 15072" d="M210.571,230.69l-12.33,21.689-8.83-8.8-7.31,10.879,2.122,1.02-.764.635s17.042,8.3,19.084,6.468S214.1,233.156,214.1,233.156Z" transform="translate(-44.018 -55.763)" fill="#e49191"/>
            <path id="Path_15073" data-name="Path 15073" d="M172.38,243.688s-2.328,9.82-6.984,14.476l-11.913-4.535s-5.528,9.3-10.934,16.424c-2.078,2.753-2.768,6.627-5.209,7.135-.152-.053-.3-.1-.447-.136-6.62-1.987-16.386.121-24.447-2.874-8.9-3.314-7.173-5.179-7.173-5.179a115,115,0,0,0,8.462-20.034,122.825,122.825,0,0,0,2.942-12.079,13.908,13.908,0,0,1,11.708-11.2c.068-.008.129-.023.2-.03,6.749-.857,24.416,1.228,27.852,2.7s15.947,15.332,15.947,15.332" transform="translate(-25.414 -54.498)" fill="#467cdb"/>
            <path id="Path_15074" data-name="Path 15074" d="M163.75,262.107s-5.528,9.3-10.934,16.424c-2.078,2.753-2.768,6.627-5.209,7.135,1.069-.379,2.844-6.006,3.473-7.272s1.645-2.525,3.829-6.946,5.131-10.918,5.131-10.918Z" transform="translate(-35.68 -62.976)" fill="#5996ef"/>
            <path id="Path_15075" data-name="Path 15075" d="M138.616,339.735s.187-.042.518-.084.8-.1,1.374-.126a22.848,22.848,0,0,1,4.174.193,21.718,21.718,0,0,1,2.2.416,16.671,16.671,0,0,1,1.871.554c.541.184.974.39,1.278.525s.472.228.472.228-.192-.022-.519-.078-.792-.132-1.347-.227c-1.111-.186-2.583-.422-4.062-.62-.737-.115-1.479-.195-2.174-.292l-1.906-.239-1.875-.252" transform="translate(-33.507 -82.065)"/>
            <path id="Path_15076" data-name="Path 15076" d="M228.634,218.923a11.62,11.62,0,0,0-2.073,1.5l.7-1.347a13.231,13.231,0,0,0,1.265-1.391c.334-.493.158-.986-.106-1.012a10.367,10.367,0,0,0-1.942,1.389l.142-.271a13.243,13.243,0,0,0,1.264-1.391c.334-.493.158-.986-.105-1.012a16.742,16.742,0,0,0-2.4,1.77l-1.042,1.395.786-1.526a6.6,6.6,0,0,0,.689-1.057c.276-.551.077-.72-.077-.9s-1.593.889-1.961,1.318a22.154,22.154,0,0,0-1.623,2.412l-1.2,2.489c-.077-.72-.2-1.956-.283-2.742-.122-1.134-1.149-1.4-1.184-.85a28.844,28.844,0,0,0-.478,4.733c.13,1.47.375,2.436.468,3.263a6.5,6.5,0,0,1-.766,2.48s3.431,2.131,4,1.493a26.73,26.73,0,0,0,2.358-3.008,16.022,16.022,0,0,0,1.343-3.033l1.072-2.291a13.246,13.246,0,0,0,1.264-1.391c.334-.493.158-.986-.105-1.012" transform="translate(-52.866 -51.98)" fill="#e49191"/>
            <path id="Path_15077" data-name="Path 15077" d="M477.233,129.085H437a4.669,4.669,0,0,0-4.669,4.669v9.5a4.669,4.669,0,0,0,4.079,4.632.673.673,0,0,1,.589.669v5.2a.309.309,0,0,0,.561.18l4.1-5.731a.678.678,0,0,1,.552-.284h35.026a4.669,4.669,0,0,0,4.669-4.669v-9.5A4.669,4.669,0,0,0,477.233,129.085Z" transform="translate(-104.503 -31.203)" fill="none" stroke="#fff" stroke-width="0.896"/>
            <path id="Path_15078" data-name="Path 15078" d="M445.645,141a1.537,1.537,0,1,1-1.537-1.538A1.537,1.537,0,0,1,445.645,141Z" transform="translate(-106.979 -33.711)" fill="none" stroke="#fff" stroke-width="0.896"/>
            <path id="Path_15079" data-name="Path 15079" d="M455.854,141a1.537,1.537,0,1,1-1.537-1.538A1.537,1.537,0,0,1,455.854,141Z" transform="translate(-109.447 -33.711)" fill="none" stroke="#fff" stroke-width="0.896"/>
            <path id="Path_15080" data-name="Path 15080" d="M466.064,141a1.537,1.537,0,1,1-1.537-1.538A1.537,1.537,0,0,1,466.064,141Z" transform="translate(-111.915 -33.711)" fill="none" stroke="#fff" stroke-width="0.896"/>
            <path id="Path_15081" data-name="Path 15081" d="M476.273,141a1.537,1.537,0,1,1-1.537-1.538A1.537,1.537,0,0,1,476.273,141Z" transform="translate(-114.383 -33.711)" fill="none" stroke="#fff" stroke-width="0.896"/>
            <path id="Path_15082" data-name="Path 15082" d="M486.483,141a1.537,1.537,0,1,1-1.537-1.538A1.537,1.537,0,0,1,486.483,141Z" transform="translate(-116.851 -33.711)" fill="none" stroke="#fff" stroke-width="0.896"/>
            <path id="Path_15083" data-name="Path 15083" d="M70.758,184.041H111a4.669,4.669,0,0,1,4.669,4.669v9.5a4.669,4.669,0,0,1-4.08,4.632.673.673,0,0,0-.589.669v5.2a.31.31,0,0,1-.561.18l-4.1-5.732a.678.678,0,0,0-.552-.284H70.758a4.669,4.669,0,0,1-4.669-4.669v-9.5A4.669,4.669,0,0,1,70.758,184.041Z" transform="translate(-15.975 -44.487)" fill="none" stroke="#fff" stroke-width="0.896"/>
            <path id="Path_15084" data-name="Path 15084" d="M117.171,195.958a1.537,1.537,0,1,0,1.536-1.537A1.536,1.536,0,0,0,117.171,195.958Z" transform="translate(-28.323 -46.996)" fill="none" stroke="#fff" stroke-width="0.896"/>
            <path id="Path_15085" data-name="Path 15085" d="M106.961,195.958a1.537,1.537,0,1,0,1.537-1.537A1.537,1.537,0,0,0,106.961,195.958Z" transform="translate(-25.855 -46.996)" fill="none" stroke="#fff" stroke-width="0.896"/>
            <path id="Path_15086" data-name="Path 15086" d="M96.752,195.958a1.537,1.537,0,1,0,1.537-1.537A1.537,1.537,0,0,0,96.752,195.958Z" transform="translate(-23.387 -46.996)" fill="none" stroke="#fff" stroke-width="0.896"/>
            <path id="Path_15087" data-name="Path 15087" d="M86.542,195.958a1.537,1.537,0,1,0,1.537-1.537A1.537,1.537,0,0,0,86.542,195.958Z" transform="translate(-20.919 -46.996)" fill="none" stroke="#fff" stroke-width="0.896"/>
            <path id="Path_15088" data-name="Path 15088" d="M76.333,195.958a1.537,1.537,0,1,0,1.537-1.537A1.537,1.537,0,0,0,76.333,195.958Z" transform="translate(-18.451 -46.996)" fill="none" stroke="#fff" stroke-width="0.896"/>
            <path id="Path_15089" data-name="Path 15089" d="M367,95.5H293.663a7.323,7.323,0,0,1,0-14.647H367A7.323,7.323,0,1,1,367,95.5" transform="translate(-69.215 -19.543)" fill="#fff"/>
            <path id="Path_15090" data-name="Path 15090" d="M367,95.5H293.663a7.323,7.323,0,0,1,0-14.647H367A7.323,7.323,0,1,1,367,95.5Z" transform="translate(-69.215 -19.543)" fill="none" stroke="#495ad6" stroke-width="0.896"/>
            <circle id="Ellipse_107" data-name="Ellipse 107" cx="3.895" cy="3.895" r="3.895" transform="translate(288.132 71.02) rotate(-76.718)" fill="none" stroke="#495ad6" stroke-width="1.672"/>
            <line id="Line_50" data-name="Line 50" x2="2.15" y2="2.15" transform="translate(295.571 70.878)" fill="none" stroke="#495ad6" stroke-linecap="round" stroke-width="1.672"/>
            <path id="Path_15091" data-name="Path 15091" d="M238.462,353.231h-18.45a5.845,5.845,0,0,1-5.845-5.845v-18.45a5.845,5.845,0,0,1,5.845-5.845h18.45a5.845,5.845,0,0,1,5.845,5.845v18.45a5.845,5.845,0,0,1-5.845,5.845" transform="translate(-51.769 -78.099)" fill="#193091"/>
            <path id="Path_15092" data-name="Path 15092" d="M231.218,353.231h-18.45a5.845,5.845,0,0,1-5.845-5.845v-18.45a5.845,5.845,0,0,1,5.845-5.845h18.45a5.845,5.845,0,0,1,5.845,5.845v18.45a5.845,5.845,0,0,1-5.845,5.845" transform="translate(-50.018 -78.099)" fill="#495ad6"/>
            <path id="Path_15093" data-name="Path 15093" d="M221.721,335.428l8.651,4.995a.8.8,0,0,1,0,1.388l-8.651,4.995a.8.8,0,0,1-1.2-.694v-9.99a.8.8,0,0,1,1.2-.694" transform="translate(-53.304 -81.054)" fill="#fff"/>
            <path id="Path_15094" data-name="Path 15094" d="M351.012,110.549H335.521a1.164,1.164,0,0,1,0-2.328h15.491a1.164,1.164,0,0,1,0,2.328" transform="translate(-80.822 -26.159)" fill="#f0f4ff"/>
            <path id="Path_15095" data-name="Path 15095" d="M372.814,110.549H361.6a1.164,1.164,0,1,1,0-2.328h11.21a1.164,1.164,0,0,1,0,2.328" transform="translate(-87.127 -26.159)" fill="#f0f4ff"/>
            <path id="Path_15096" data-name="Path 15096" d="M342.1,117.3h-6.581a1.164,1.164,0,0,1,0-2.328H342.1a1.164,1.164,0,0,1,0,2.328" transform="translate(-80.822 -27.791)" fill="#f0f4ff"/>
            <path id="Path_15097" data-name="Path 15097" d="M369.853,117.3h-20.5a1.164,1.164,0,0,1,0-2.328h20.5a1.164,1.164,0,0,1,0,2.328" transform="translate(-84.165 -27.791)" fill="#f0f4ff"/>
            <path id="Path_15098" data-name="Path 15098" d="M355.941,124.049H335.522a1.164,1.164,0,0,1,0-2.328h20.419a1.164,1.164,0,0,1,0,2.328" transform="translate(-80.822 -29.423)" fill="#f0f4ff"/>
            <path id="Path_15099" data-name="Path 15099" d="M374.29,124.049h-6.582a1.164,1.164,0,0,1,0-2.328h6.582a1.164,1.164,0,1,1,0,2.328" transform="translate(-88.602 -29.423)" fill="#f0f4ff"/>
            <path id="Path_15100" data-name="Path 15100" d="M79.473,257.534H25.4a2.9,2.9,0,0,1-2.9-2.9v-27.3a2.9,2.9,0,0,1,2.9-2.9H79.473a2.9,2.9,0,0,1,2.9,2.9v27.3a2.9,2.9,0,0,1-2.9,2.9" transform="translate(-5.438 -54.252)" fill="#193091"/>
            <line id="Line_51" data-name="Line 51" x2="54.786" transform="translate(19.604 174.657)" fill="none" stroke="#fff" stroke-linecap="round" stroke-width="0.896"/>
            <path id="Path_15101" data-name="Path 15101" d="M96.648,227.122a.663.663,0,1,1-.663-.663.664.664,0,0,1,.663.663" transform="translate(-23.041 -54.74)" fill="#fff"/>
            <path id="Path_15102" data-name="Path 15102" d="M92.085,227.122a.663.663,0,1,1-.663-.663.664.664,0,0,1,.663.663" transform="translate(-21.938 -54.74)" fill="#fff"/>
            <path id="Path_15103" data-name="Path 15103" d="M87.523,227.122a.663.663,0,1,1-.663-.663.664.664,0,0,1,.663.663" transform="translate(-20.836 -54.74)" fill="#fff"/>
            <path id="Path_15104" data-name="Path 15104" d="M36.065,235.625h-9.3a.916.916,0,0,1,0-1.833h9.3a.916.916,0,0,1,0,1.833" transform="translate(-6.249 -56.513)" fill="#6589d1"/>
            <path id="Path_15105" data-name="Path 15105" d="M36.065,241.208h-9.3a.916.916,0,0,1,0-1.833h9.3a.916.916,0,0,1,0,1.833" transform="translate(-6.249 -57.862)" fill="#6589d1"/>
            <path id="Path_15106" data-name="Path 15106" d="M36.065,246.791h-9.3a.916.916,0,0,1,0-1.833h9.3a.916.916,0,0,1,0,1.833" transform="translate(-6.249 -59.212)" fill="#6589d1"/>
            <path id="Path_15107" data-name="Path 15107" d="M36.065,252.375h-9.3a.916.916,0,0,1,0-1.833h9.3a.916.916,0,0,1,0,1.833" transform="translate(-6.249 -60.562)" fill="#6589d1"/>
            <path id="Path_15108" data-name="Path 15108" d="M36.065,257.958h-9.3a.916.916,0,0,1,0-1.833h9.3a.916.916,0,0,1,0,1.833" transform="translate(-6.249 -61.911)" fill="#6589d1"/>
            <path id="Path_15109" data-name="Path 15109" d="M36.065,263.541h-9.3a.916.916,0,0,1,0-1.833h9.3a.916.916,0,0,1,0,1.833" transform="translate(-6.249 -63.261)" fill="#6589d1"/>
            <path id="Path_15110" data-name="Path 15110" d="M83.832,235.625H43.77a.916.916,0,1,1,0-1.833H83.832a.916.916,0,0,1,0,1.833" transform="translate(-10.359 -56.513)" fill="#3b5fb7"/>
            <path id="Path_15111" data-name="Path 15111" d="M83.832,241.208H43.77a.916.916,0,1,1,0-1.833H83.832a.916.916,0,0,1,0,1.833" transform="translate(-10.359 -57.862)" fill="#3b5fb7"/>
            <path id="Path_15112" data-name="Path 15112" d="M83.832,246.791H43.77a.916.916,0,1,1,0-1.833H83.832a.916.916,0,0,1,0,1.833" transform="translate(-10.359 -59.212)" fill="#3b5fb7"/>
            <path id="Path_15113" data-name="Path 15113" d="M83.832,252.375H43.77a.916.916,0,1,1,0-1.833H83.832a.916.916,0,0,1,0,1.833" transform="translate(-10.359 -60.562)" fill="#3b5fb7"/>
            <path id="Path_15114" data-name="Path 15114" d="M83.832,257.958H43.77a.916.916,0,1,1,0-1.833H83.832a.916.916,0,0,1,0,1.833" transform="translate(-10.359 -61.911)" fill="#3b5fb7"/>
            <path id="Path_15115" data-name="Path 15115" d="M83.832,263.541H43.77a.916.916,0,1,1,0-1.833H83.832a.916.916,0,0,1,0,1.833" transform="translate(-10.359 -63.261)" fill="#3b5fb7"/>
            <path id="Path_15116" data-name="Path 15116" d="M39.073,182.834H12.006a7.256,7.256,0,0,1-7.256-7.256V148.511a7.256,7.256,0,0,1,7.256-7.256H39.073a7.256,7.256,0,0,1,7.256,7.256v27.067a7.256,7.256,0,0,1-7.256,7.256" transform="translate(-1.148 -34.145)" fill="#193091"/>
            <path id="Path_15117" data-name="Path 15117" d="M36.266,178.084H6.314A5.814,5.814,0,0,1,.5,172.27V142.318A5.813,5.813,0,0,1,6.314,136.5H36.266a5.813,5.813,0,0,1,5.814,5.813V172.27a5.814,5.814,0,0,1-5.814,5.814" transform="translate(-0.121 -32.996)" fill="#7e89fd"/>
            <path id="Rectangle_5913" data-name="Rectangle 5913" d="M7.667,0H33.912a7.667,7.667,0,0,1,7.667,7.667V33.913a7.666,7.666,0,0,1-7.666,7.666H7.666A7.666,7.666,0,0,1,0,33.913V7.667A7.667,7.667,0,0,1,7.667,0Z" transform="translate(0.379 103.509)" fill="none" stroke="#dee3fc" stroke-width="1"/>
            <path id="Path_15118" data-name="Path 15118" d="M32.174,154.624h-.218v-2.382a7.089,7.089,0,1,0-14.178,0v2.382h-.048a1.99,1.99,0,0,0-1.99,1.99v8.976a1.989,1.989,0,0,0,1.99,1.989H32.174a1.989,1.989,0,0,0,1.989-1.989v-8.976a1.989,1.989,0,0,0-1.989-1.99m-12.6-2.382a5.294,5.294,0,0,1,10.588,0v2.382H19.573Z" transform="translate(-3.805 -35.087)" fill="#dee3fc"/>
            <path id="Path_15119" data-name="Path 15119" d="M29.492,162.99a2.314,2.314,0,1,0-3.48,1.994.415.415,0,0,1,.21.465l-.4,1.485a1.389,1.389,0,1,0,2.681,0l-.4-1.47A.415.415,0,0,1,28.32,165a2.3,2.3,0,0,0,1.172-2.006" transform="translate(-6.011 -38.839)" fill="#7e89fd"/>
            <path id="Path_15120" data-name="Path 15120" d="M33.31,178.335H16.594a.853.853,0,1,1,0-1.706H33.31a.853.853,0,1,1,0,1.706" transform="translate(-3.805 -42.695)" fill="#dee3fc"/>
            <path id="Path_15121" data-name="Path 15121" d="M33.31,182.147H16.594a.853.853,0,0,1,0-1.706H33.31a.853.853,0,0,1,0,1.706" transform="translate(-3.805 -43.617)" fill="#dee3fc"/>
            <path id="Path_15122" data-name="Path 15122" d="M475.488,252.739H459.553a4.272,4.272,0,0,1-4.272-4.272V232.532a4.272,4.272,0,0,1,4.272-4.271h15.934a4.271,4.271,0,0,1,4.271,4.271v15.934a4.272,4.272,0,0,1-4.271,4.272" transform="translate(-110.052 -55.176)" fill="#193091"/>
            <path id="Path_15123" data-name="Path 15123" d="M473.835,249.943H456.2a3.423,3.423,0,0,1-3.423-3.423V228.887a3.423,3.423,0,0,1,3.423-3.422h17.633a3.422,3.422,0,0,1,3.422,3.422V246.52a3.422,3.422,0,0,1-3.422,3.423" transform="translate(-109.447 -54.5)" fill="#7e89fd"/>
            <path id="Rectangle_5914" data-name="Rectangle 5914" d="M4.514,0h15.45a4.514,4.514,0,0,1,4.514,4.514V19.965a4.513,4.513,0,0,1-4.513,4.513H4.513A4.513,4.513,0,0,1,0,19.965V4.514A4.514,4.514,0,0,1,4.514,0Z" transform="translate(343.332 170.965)" fill="none" stroke="#dee3fc" stroke-width="1"/>
            <path id="Path_15124" data-name="Path 15124" d="M462.156,246.585a.74.74,0,0,1-.206-.029.756.756,0,0,1-.524-.935l3.7-13.1a.758.758,0,0,1,1.459.412l-3.7,13.1a.758.758,0,0,1-.729.553" transform="translate(-111.53 -56.071)" fill="#fff"/>
            <path id="Path_15125" data-name="Path 15125" d="M470.319,246.585a.74.74,0,0,1-.206-.029.757.757,0,0,1-.524-.935l3.7-13.1a.758.758,0,0,1,1.459.412l-3.7,13.1a.757.757,0,0,1-.729.553" transform="translate(-113.503 -56.071)" fill="#fff"/>
            <path id="Path_15126" data-name="Path 15126" d="M473.141,238.206h-13.1a.758.758,0,0,1,0-1.517h13.1a.758.758,0,1,1,0,1.517" transform="translate(-111.018 -57.213)" fill="#fff"/>
            <path id="Path_15127" data-name="Path 15127" d="M473.141,246.1h-13.1a.758.758,0,0,1,0-1.517h13.1a.758.758,0,1,1,0,1.517" transform="translate(-111.018 -59.121)" fill="#fff"/>
            <path id="Path_15128" data-name="Path 15128" d="M88.877,157.338H79.4a1.039,1.039,0,1,1,0-2.078h9.477a1.039,1.039,0,0,1,0,2.078" transform="translate(-18.941 -37.53)" fill="#f0f4ff"/>
            <path id="Path_15129" data-name="Path 15129" d="M98.423,163.422H79.4a1.039,1.039,0,1,1,0-2.078H98.423a1.039,1.039,0,0,1,0,2.078" transform="translate(-18.941 -39.001)" fill="#f0f4ff"/>
            <path id="Path_15130" data-name="Path 15130" d="M81.646,169.505H79.4a1.039,1.039,0,1,1,0-2.078h2.247a1.039,1.039,0,0,1,0,2.078" transform="translate(-18.941 -40.471)" fill="#f0f4ff"/>
            <path id="Path_15131" data-name="Path 15131" d="M100.265,169.505H87.019a1.039,1.039,0,0,1,0-2.078h13.246a1.039,1.039,0,0,1,0,2.078" transform="translate(-20.783 -40.471)" fill="#f0f4ff"/>
            <path id="Path_15132" data-name="Path 15132" d="M102.657,157.338H96.912a1.039,1.039,0,0,1,0-2.078h5.745a1.039,1.039,0,0,1,0,2.078" transform="translate(-23.175 -37.53)" fill="#f0f4ff"/>
          </g>
        </g>
      </g>
    </g>
  </g>
</svg>
